# xmcd CD database file
#
# Track frame offsets:
#	150
#	22818
#	47794
#	77317
#	103164
#	124002
#	162002
#	184946
#	214431
#
# Disc length: 3319 seconds
#
# Revision: 0
# Processed by: cddbd v1.4PL0 Copyright (c) Steve Scherf et al.
# Submitted via: CDex 1.50beta9
#
DISCID=6e0cf509
DTITLE=Barbara Jungfer - Vitamin B3
DYEAR=1900
DGENRE=Jazz
TTITLE0=Back Home
TTITLE1=Open Window
TTITLE2=Scones
TTITLE3=Dawn Bird
TTITLE4=Eloquence
TTITLE5=God Bless The Child
TTITLE6=Ginger Plant
TTITLE7=Sereia
TTITLE8=Snow Blues
EXTD=
EXTT0=
EXTT1=
EXTT2=
EXTT3=
EXTT4=
EXTT5=
EXTT6=
EXTT7=
EXTT8=
PLAYORDER=
